0
SECTION
2
HEADER
0
ENDSEC
0
SECTION
2
TABLES
0
ENDSEC
0
SECTION
2
BLOCKS
0
ENDSEC
0
SECTION
2
ENTITIES
0
LINE
8
0
10
3.500
20
0.000
11
100.500
21
0.000
0
LINE
8
0
10
104.000
20
3.500
11
104.000
21
73.500
0
LINE
8
0
10
100.500
20
77.000
11
3.500
21
77.000
0
LINE
8
0
10
0.000
20
73.500
11
0.000
21
3.500
0
ARC
8
0
10
100.500
20
3.500
40
3.500
50
270.000
51
360.000
0
ARC
8
0
10
100.500
20
73.500
40
3.500
50
0.000
51
90.000
0
ARC
8
0
10
3.500
20
73.500
40
3.500
50
90.000
51
180.000
0
ARC
8
0
10
3.500
20
3.500
40
3.500
50
180.000
51
270.000
0
CIRCLE
8
CUT
10
6.400
20
7.200
40
1.400
0
CIRCLE
8
COUNTERSINK
10
6.400
20
7.200
40
2.700
0
CIRCLE
8
CUT
10
97.600
20
7.200
40
1.400
0
CIRCLE
8
COUNTERSINK
10
97.600
20
7.200
40
2.700
0
CIRCLE
8
CUT
10
97.600
20
70.100
40
1.400
0
CIRCLE
8
COUNTERSINK
10
97.600
20
70.100
40
2.700
0
CIRCLE
8
CUT
10
6.400
20
70.100
40
1.400
0
CIRCLE
8
COUNTERSINK
10
6.400
20
70.100
40
2.700
0
CIRCLE
8
CUT
10
8.000
20
8.000
40
4.250
0
CIRCLE
8
CUT
10
96.000
20
8.000
40
4.250
0
CIRCLE
8
CUT
10
96.000
20
69.000
40
4.250
0
CIRCLE
8
CUT
10
8.000
20
69.000
40
4.250
0
CIRCLE
8
CUT
10
15.000
20
46.600
40
1.400
0
CIRCLE
8
CUT
10
73.000
20
46.600
40
1.400
0
CIRCLE
8
CUT
10
73.000
20
69.600
40
1.400
0
CIRCLE
8
CUT
10
15.000
20
69.600
40
1.400
0
LINE
8
CUT
10
23.600
20
49.200
11
23.600
21
51.000
0
LINE
8
CUT
10
25.400
20
49.200
11
25.400
21
51.000
0
ARC
8
CUT
10
24.500
20
51.000
40
0.900
50
0.000
51
180.000
0
ARC
8
CUT
10
24.500
20
49.200
40
0.900
50
180.000
51
360.000
0
LINE
8
CUT
10
23.600
20
54.600
11
23.600
21
56.400
0
LINE
8
CUT
10
25.400
20
54.600
11
25.400
21
56.400
0
ARC
8
CUT
10
24.500
20
56.400
40
0.900
50
0.000
51
180.000
0
ARC
8
CUT
10
24.500
20
54.600
40
0.900
50
180.000
51
360.000
0
LINE
8
CUT
10
23.600
20
60.000
11
23.600
21
61.800
0
LINE
8
CUT
10
25.400
20
60.000
11
25.400
21
61.800
0
ARC
8
CUT
10
24.500
20
61.800
40
0.900
50
0.000
51
180.000
0
ARC
8
CUT
10
24.500
20
60.000
40
0.900
50
180.000
51
360.000
0
LINE
8
CUT
10
23.600
20
65.400
11
23.600
21
67.200
0
LINE
8
CUT
10
25.400
20
65.400
11
25.400
21
67.200
0
ARC
8
CUT
10
24.500
20
67.200
40
0.900
50
0.000
51
180.000
0
ARC
8
CUT
10
24.500
20
65.400
40
0.900
50
180.000
51
360.000
0
LINE
8
CUT
10
29.800
20
50.700
11
29.800
21
52.500
0
LINE
8
CUT
10
31.600
20
50.700
11
31.600
21
52.500
0
ARC
8
CUT
10
30.700
20
52.500
40
0.900
50
0.000
51
180.000
0
ARC
8
CUT
10
30.700
20
50.700
40
0.900
50
180.000
51
360.000
0
LINE
8
CUT
10
29.800
20
56.100
11
29.800
21
57.900
0
LINE
8
CUT
10
31.600
20
56.100
11
31.600
21
57.900
0
ARC
8
CUT
10
30.700
20
57.900
40
0.900
50
0.000
51
180.000
0
ARC
8
CUT
10
30.700
20
56.100
40
0.900
50
180.000
51
360.000
0
LINE
8
CUT
10
29.800
20
61.500
11
29.800
21
63.300
0
LINE
8
CUT
10
31.600
20
61.500
11
31.600
21
63.300
0
ARC
8
CUT
10
30.700
20
63.300
40
0.900
50
0.000
51
180.000
0
ARC
8
CUT
10
30.700
20
61.500
40
0.900
50
180.000
51
360.000
0
LINE
8
CUT
10
29.800
20
66.900
11
29.800
21
68.700
0
LINE
8
CUT
10
31.600
20
66.900
11
31.600
21
68.700
0
ARC
8
CUT
10
30.700
20
68.700
40
0.900
50
0.000
51
180.000
0
ARC
8
CUT
10
30.700
20
66.900
40
0.900
50
180.000
51
360.000
0
LINE
8
CUT
10
36.000
20
49.200
11
36.000
21
51.000
0
LINE
8
CUT
10
37.800
20
49.200
11
37.800
21
51.000
0
ARC
8
CUT
10
36.900
20
51.000
40
0.900
50
0.000
51
180.000
0
ARC
8
CUT
10
36.900
20
49.200
40
0.900
50
180.000
51
360.000
0
LINE
8
CUT
10
36.000
20
54.600
11
36.000
21
56.400
0
LINE
8
CUT
10
37.800
20
54.600
11
37.800
21
56.400
0
ARC
8
CUT
10
36.900
20
56.400
40
0.900
50
0.000
51
180.000
0
ARC
8
CUT
10
36.900
20
54.600
40
0.900
50
180.000
51
360.000
0
LINE
8
CUT
10
36.000
20
60.000
11
36.000
21
61.800
0
LINE
8
CUT
10
37.800
20
60.000
11
37.800
21
61.800
0
ARC
8
CUT
10
36.900
20
61.800
40
0.900
50
0.000
51
180.000
0
ARC
8
CUT
10
36.900
20
60.000
40
0.900
50
180.000
51
360.000
0
LINE
8
CUT
10
36.000
20
65.400
11
36.000
21
67.200
0
LINE
8
CUT
10
37.800
20
65.400
11
37.800
21
67.200
0
ARC
8
CUT
10
36.900
20
67.200
40
0.900
50
0.000
51
180.000
0
ARC
8
CUT
10
36.900
20
65.400
40
0.900
50
180.000
51
360.000
0
LINE
8
CUT
10
42.200
20
50.700
11
42.200
21
52.500
0
LINE
8
CUT
10
44.000
20
50.700
11
44.000
21
52.500
0
ARC
8
CUT
10
43.100
20
52.500
40
0.900
50
0.000
51
180.000
0
ARC
8
CUT
10
43.100
20
50.700
40
0.900
50
180.000
51
360.000
0
LINE
8
CUT
10
42.200
20
56.100
11
42.200
21
57.900
0
LINE
8
CUT
10
44.000
20
56.100
11
44.000
21
57.900
0
ARC
8
CUT
10
43.100
20
57.900
40
0.900
50
0.000
51
180.000
0
ARC
8
CUT
10
43.100
20
56.100
40
0.900
50
180.000
51
360.000
0
LINE
8
CUT
10
42.200
20
61.500
11
42.200
21
63.300
0
LINE
8
CUT
10
44.000
20
61.500
11
44.000
21
63.300
0
ARC
8
CUT
10
43.100
20
63.300
40
0.900
50
0.000
51
180.000
0
ARC
8
CUT
10
43.100
20
61.500
40
0.900
50
180.000
51
360.000
0
LINE
8
CUT
10
42.200
20
66.900
11
42.200
21
68.700
0
LINE
8
CUT
10
44.000
20
66.900
11
44.000
21
68.700
0
ARC
8
CUT
10
43.100
20
68.700
40
0.900
50
0.000
51
180.000
0
ARC
8
CUT
10
43.100
20
66.900
40
0.900
50
180.000
51
360.000
0
LINE
8
CUT
10
48.400
20
49.200
11
48.400
21
51.000
0
LINE
8
CUT
10
50.200
20
49.200
11
50.200
21
51.000
0
ARC
8
CUT
10
49.300
20
51.000
40
0.900
50
0.000
51
180.000
0
ARC
8
CUT
10
49.300
20
49.200
40
0.900
50
180.000
51
360.000
0
LINE
8
CUT
10
48.400
20
54.600
11
48.400
21
56.400
0
LINE
8
CUT
10
50.200
20
54.600
11
50.200
21
56.400
0
ARC
8
CUT
10
49.300
20
56.400
40
0.900
50
0.000
51
180.000
0
ARC
8
CUT
10
49.300
20
54.600
40
0.900
50
180.000
51
360.000
0
LINE
8
CUT
10
48.400
20
60.000
11
48.400
21
61.800
0
LINE
8
CUT
10
50.200
20
60.000
11
50.200
21
61.800
0
ARC
8
CUT
10
49.300
20
61.800
40
0.900
50
0.000
51
180.000
0
ARC
8
CUT
10
49.300
20
60.000
40
0.900
50
180.000
51
360.000
0
LINE
8
CUT
10
48.400
20
65.400
11
48.400
21
67.200
0
LINE
8
CUT
10
50.200
20
65.400
11
50.200
21
67.200
0
ARC
8
CUT
10
49.300
20
67.200
40
0.900
50
0.000
51
180.000
0
ARC
8
CUT
10
49.300
20
65.400
40
0.900
50
180.000
51
360.000
0
LINE
8
CUT
10
54.600
20
50.700
11
54.600
21
52.500
0
LINE
8
CUT
10
56.400
20
50.700
11
56.400
21
52.500
0
ARC
8
CUT
10
55.500
20
52.500
40
0.900
50
0.000
51
180.000
0
ARC
8
CUT
10
55.500
20
50.700
40
0.900
50
180.000
51
360.000
0
LINE
8
CUT
10
54.600
20
56.100
11
54.600
21
57.900
0
LINE
8
CUT
10
56.400
20
56.100
11
56.400
21
57.900
0
ARC
8
CUT
10
55.500
20
57.900
40
0.900
50
0.000
51
180.000
0
ARC
8
CUT
10
55.500
20
56.100
40
0.900
50
180.000
51
360.000
0
LINE
8
CUT
10
54.600
20
61.500
11
54.600
21
63.300
0
LINE
8
CUT
10
56.400
20
61.500
11
56.400
21
63.300
0
ARC
8
CUT
10
55.500
20
63.300
40
0.900
50
0.000
51
180.000
0
ARC
8
CUT
10
55.500
20
61.500
40
0.900
50
180.000
51
360.000
0
LINE
8
CUT
10
54.600
20
66.900
11
54.600
21
68.700
0
LINE
8
CUT
10
56.400
20
66.900
11
56.400
21
68.700
0
ARC
8
CUT
10
55.500
20
68.700
40
0.900
50
0.000
51
180.000
0
ARC
8
CUT
10
55.500
20
66.900
40
0.900
50
180.000
51
360.000
0
ENDSEC
0
EOF
